<svg width="1930" height="1392" viewBox="0 0 1930 1392" fill="none" xmlns="http://www.w3.org/2000/svg">
<g opacity="0.2">
<path opacity="0.26087" fill-rule="evenodd" clip-rule="evenodd" d="M1386.23 1125.05L1100.16 1119.23C1091.28 1119.05 1083.47 1113.3 1080.66 1104.87L990.343 833.367C988.547 827.97 989.018 822.075 991.647 817.031L1173.4 468.35C1175.53 464.262 1178.95 460.988 1183.12 459.035L1498.86 311.342C1505.83 308.083 1514.02 308.894 1520.21 313.457L1725.78 464.917C1731.98 469.48 1735.18 477.065 1734.13 484.686L1686.63 830.006C1686 834.573 1683.89 838.807 1680.62 842.053L1401.45 1118.96C1397.41 1122.97 1391.92 1125.16 1386.23 1125.05ZM1100.08 1123.23C1089.51 1123.02 1080.21 1116.17 1076.87 1106.13L986.547 834.629C984.41 828.204 984.97 821.187 988.1 815.182L1169.85 466.501C1172.39 461.634 1176.46 457.737 1181.43 455.412L1497.16 307.719C1505.46 303.838 1515.21 304.804 1522.58 310.237L1728.16 461.697C1735.53 467.129 1739.34 476.158 1738.09 485.231L1690.59 830.551C1689.85 835.988 1687.33 841.028 1683.43 844.893L1404.27 1121.8C1399.46 1126.57 1392.92 1129.18 1386.15 1129.05L1100.08 1123.23Z" fill="url(#paint0_linear_9_2804)"/>
<path opacity="0.275362" fill-rule="evenodd" clip-rule="evenodd" d="M1344.87 1124.54L1061.84 1103.35C1053.01 1102.69 1045.54 1096.56 1043.17 1088.03L967.238 814.55C965.713 809.059 966.485 803.185 969.377 798.275L1166.72 463.152C1169.07 459.164 1172.67 456.064 1176.96 454.333L1496.99 325.264C1504.11 322.392 1512.23 323.636 1518.17 328.508L1714.24 489.458C1720.17 494.33 1722.98 502.053 1721.55 509.598L1657.31 848.639C1656.45 853.186 1654.11 857.321 1650.66 860.402L1360.41 1119.27C1356.16 1123.06 1350.55 1124.96 1344.87 1124.54ZM1061.54 1107.34C1051.03 1106.55 1042.14 1099.25 1039.32 1089.1L963.383 815.62C961.569 809.084 962.488 802.091 965.93 796.246L1163.28 461.123C1166.07 456.375 1170.36 452.684 1175.47 450.623L1495.49 321.555C1503.97 318.135 1513.64 319.616 1520.71 325.416L1716.78 486.366C1723.84 492.166 1727.18 501.361 1725.48 510.343L1661.24 849.383C1660.22 854.797 1657.43 859.72 1653.32 863.387L1363.08 1122.25C1358.01 1126.77 1351.33 1129.03 1344.57 1128.53L1061.54 1107.34Z" fill="url(#paint1_linear_9_2804)"/>
<path opacity="0.289855" fill-rule="evenodd" clip-rule="evenodd" d="M1303.87 1123.05L1024.69 1086.79C1015.94 1085.65 1008.84 1079.17 1006.91 1070.56L945.32 795.858C944.071 790.288 945.144 784.45 948.29 779.687L1160.32 458.791C1162.88 454.914 1166.66 451.997 1171.05 450.495L1494.29 340.088C1501.54 337.611 1509.57 339.282 1515.23 344.449L1701.38 514.312C1707.04 519.479 1709.44 527.32 1707.63 534.77L1627.19 866.734C1626.09 871.25 1623.53 875.275 1619.9 878.18L1319.7 1118.61C1315.24 1122.18 1309.53 1123.78 1303.87 1123.05ZM1024.18 1090.75C1013.76 1089.4 1005.3 1081.68 1003 1071.43L941.417 796.733C939.93 790.102 941.207 783.152 944.953 777.482L1156.98 456.586C1160.03 451.971 1164.53 448.497 1169.76 446.71L1493 336.303C1501.63 333.354 1511.19 335.343 1517.93 341.494L1704.07 511.357C1710.81 517.508 1713.67 526.843 1711.52 535.712L1631.07 867.676C1629.77 873.052 1626.72 877.844 1622.4 881.302L1322.2 1121.73C1316.89 1125.98 1310.09 1127.89 1303.35 1127.01L1024.18 1090.75Z" fill="url(#paint2_linear_9_2804)"/>
<path opacity="0.304348" fill-rule="evenodd" clip-rule="evenodd" d="M1263.27 1120.6L988.753 1069.62C980.11 1068.02 973.381 1061.2 971.891 1052.53L924.572 777.358C923.603 771.722 924.974 765.934 928.369 761.333L1154.14 455.272C1156.91 451.518 1160.85 448.793 1165.34 447.527L1490.72 355.76C1498.08 353.683 1505.99 355.775 1511.37 361.221L1687.19 539.403C1692.57 544.849 1694.55 552.787 1692.38 560.122L1596.28 884.253C1594.96 888.725 1592.18 892.629 1588.39 895.348L1279.35 1117.02C1274.7 1120.35 1268.9 1121.65 1263.27 1120.6ZM988.023 1073.55C977.733 1071.64 969.723 1063.53 967.949 1053.21L920.63 778.036C919.476 771.326 921.109 764.437 925.15 758.958L1150.92 452.898C1154.22 448.429 1158.91 445.185 1164.25 443.677L1489.63 351.91C1498.4 349.438 1507.82 351.929 1514.22 358.412L1690.04 536.594C1696.44 543.077 1698.8 552.527 1696.21 561.259L1600.12 885.39C1598.54 890.714 1595.23 895.361 1590.72 898.598L1281.68 1120.27C1276.15 1124.24 1269.24 1125.78 1262.54 1124.54L988.023 1073.55Z" fill="url(#paint3_linear_9_2804)"/>
<path opacity="0.318841" fill-rule="evenodd" clip-rule="evenodd" d="M1223.14 1117.24L954.038 1051.93C945.527 1049.86 939.192 1042.73 938.143 1034.03L904.974 759.112C904.288 753.424 905.955 747.703 909.589 743.274L1148.14 452.601C1151.11 448.98 1155.2 446.457 1159.77 445.432L1486.24 372.221C1493.7 370.55 1501.47 373.056 1506.54 378.765L1671.69 564.656C1676.76 570.364 1678.33 578.377 1675.79 585.579L1564.64 901.155C1563.09 905.573 1560.1 909.344 1556.16 911.868L1239.41 1114.52C1234.59 1117.61 1228.71 1118.59 1223.14 1117.24ZM953.095 1055.81C942.962 1053.35 935.42 1044.86 934.171 1034.51L901.003 759.591C900.186 752.82 902.171 746.009 906.497 740.737L1145.04 450.063C1148.58 445.753 1153.46 442.749 1158.9 441.529L1485.37 368.318C1494.24 366.329 1503.49 369.312 1509.53 376.108L1674.68 561.999C1680.71 568.795 1682.59 578.333 1679.57 586.908L1568.42 902.484C1566.57 907.743 1563.01 912.232 1558.31 915.237L1241.57 1117.89C1235.82 1121.57 1228.82 1122.74 1222.2 1121.13L953.095 1055.81Z" fill="url(#paint4_linear_9_2804)"/>
<path opacity="0.333333" fill-rule="evenodd" clip-rule="evenodd" d="M1183.51 1112.99L920.564 1033.77C912.21 1031.25 906.283 1023.83 905.674 1015.13L886.5 741.183C886.099 735.458 888.06 729.818 891.925 725.575L1142.26 450.779C1145.43 447.302 1149.67 444.989 1154.31 444.211L1480.83 389.414C1488.35 388.152 1495.96 391.062 1500.71 397.017L1654.86 589.992C1659.62 595.947 1660.78 604.012 1657.89 611.064L1532.31 917.406C1530.52 921.758 1527.33 925.385 1523.24 927.706L1199.93 1111.15C1194.94 1113.98 1189 1114.65 1183.51 1112.99ZM919.41 1037.6C909.465 1034.6 902.409 1025.77 901.683 1015.41L882.51 741.463C882.033 734.646 884.366 727.932 888.968 722.881L1139.31 448.085C1143.08 443.946 1148.13 441.193 1153.65 440.266L1480.17 385.469C1489.11 383.967 1498.17 387.432 1503.84 394.521L1657.99 587.496C1663.65 594.585 1665.03 604.186 1661.59 612.581L1536.01 918.923C1533.88 924.104 1530.08 928.422 1525.21 931.185L1201.9 1114.63C1195.96 1118 1188.89 1118.79 1182.35 1116.82L919.41 1037.6Z" fill="url(#paint5_linear_9_2804)"/>
<path opacity="0.347826" fill-rule="evenodd" clip-rule="evenodd" d="M1144.41 1107.89L888.344 1015.23C880.172 1012.28 874.665 1004.59 874.494 995.9L869.125 723.632C869.011 717.883 871.26 712.339 875.347 708.294L1136.48 449.806C1139.84 446.484 1144.21 444.389 1148.91 443.862L1474.45 407.278C1482 406.429 1489.43 409.733 1493.86 415.917L1636.73 615.339C1641.16 621.522 1641.9 629.618 1638.66 636.502L1499.31 932.973C1497.3 937.247 1493.91 940.719 1489.69 942.828L1160.94 1106.94C1155.79 1109.5 1149.82 1109.85 1144.41 1107.89ZM886.983 1018.99C877.254 1015.47 870.699 1006.32 870.495 995.979L865.125 723.711C864.99 716.867 867.668 710.267 872.533 705.451L1133.66 446.963C1137.66 443.008 1142.87 440.515 1148.46 439.887L1474 403.303C1483 402.292 1491.84 406.226 1497.11 413.587L1639.98 613.009C1645.26 620.371 1646.14 630.008 1642.28 638.204L1502.93 934.674C1500.54 939.763 1496.5 943.896 1491.47 946.407L1162.73 1110.52C1156.6 1113.57 1149.49 1113.99 1143.05 1111.66L886.983 1018.99Z" fill="url(#paint6_linear_9_2804)"/>
<path opacity="0.376812" fill-rule="evenodd" clip-rule="evenodd" d="M1068.02 1095.3L827.689 977.301C819.949 973.501 815.319 965.357 816.012 956.763L837.54 689.894C838.004 684.141 840.816 678.832 845.314 675.216L1124.98 450.393C1128.7 447.408 1133.31 445.775 1138.08 445.76L1458.68 444.78C1466.25 444.757 1473.25 448.816 1477 455.401L1596.59 665.768C1600.34 672.354 1600.24 680.445 1596.35 686.943L1431.52 961.93C1429.07 966.016 1425.31 969.148 1420.84 970.811L1084.61 1096.13C1079.2 1098.15 1073.2 1097.85 1068.02 1095.3ZM825.926 980.892C816.712 976.368 811.2 966.672 812.025 956.441L833.553 689.573C834.105 682.723 837.452 676.404 842.808 672.098L1122.48 447.275C1126.9 443.722 1132.39 441.778 1138.06 441.76L1458.67 440.78C1467.68 440.753 1476.02 445.584 1480.48 453.424L1600.07 663.791C1604.53 671.631 1604.42 681.264 1599.78 689L1434.95 963.987C1432.04 968.851 1427.55 972.579 1422.24 974.56L1086 1099.88C1079.56 1102.28 1072.42 1101.92 1066.25 1098.9L825.926 980.892Z" fill="url(#paint7_linear_9_2804)"/>
<path opacity="0.391304" fill-rule="evenodd" clip-rule="evenodd" d="M1030.78 1087.89L799.255 958.055C791.766 953.855 787.588 945.519 788.706 937.005L823.26 673.818C824.012 668.084 827.097 662.914 831.785 659.528L1119.19 451.94C1123.06 449.139 1127.78 447.746 1132.56 447.991L1449.26 464.294C1456.8 464.683 1463.56 469.099 1466.95 475.858L1574.62 690.707C1578.01 697.465 1577.5 705.522 1573.3 711.803L1396.81 975.268C1394.15 979.243 1390.21 982.19 1385.64 983.62L1047.33 1089.62C1041.81 1091.35 1035.82 1090.72 1030.78 1087.89ZM797.299 961.544C788.383 956.544 783.409 946.619 784.74 936.484L819.294 673.297C820.19 666.471 823.862 660.316 829.443 656.285L1116.84 448.697C1121.46 445.362 1127.08 443.704 1132.77 443.997L1449.46 460.299C1458.45 460.762 1466.49 466.02 1470.53 474.065L1578.2 688.915C1582.23 696.96 1581.63 706.552 1576.62 714.029L1400.14 977.494C1396.97 982.226 1392.28 985.734 1386.84 987.437L1048.53 1093.43C1041.96 1095.49 1034.83 1094.75 1028.82 1091.38L797.299 961.544Z" fill="url(#paint8_linear_9_2804)"/>
<path opacity="0.405797" fill-rule="evenodd" clip-rule="evenodd" d="M994.227 1079.8L772.08 938.718C764.862 934.134 761.144 925.631 762.679 917.22L809.936 658.339C810.977 652.638 814.327 647.621 819.193 644.475L1113.3 454.31C1117.33 451.701 1122.14 450.554 1126.92 451.063L1438.79 484.234C1446.29 485.032 1452.78 489.791 1455.81 496.703L1551.42 715.37C1554.44 722.281 1553.53 730.282 1549.02 736.331L1361.63 987.813C1358.75 991.666 1354.65 994.418 1349.99 995.61L1010.69 1082.41C1005.08 1083.85 999.118 1082.9 994.227 1079.8ZM769.935 942.095C761.342 936.638 756.916 926.515 758.744 916.501L806.001 657.621C807.24 650.834 811.228 644.862 817.021 641.116L1111.13 450.951C1115.93 447.845 1121.65 446.48 1127.34 447.085L1439.21 480.257C1448.14 481.206 1455.87 486.872 1459.47 495.1L1555.09 713.767C1558.68 721.995 1557.59 731.52 1552.23 738.721L1364.83 990.203C1361.41 994.79 1356.53 998.067 1350.98 999.485L1011.68 1086.29C1005 1088 997.906 1086.87 992.083 1083.17L769.935 942.095Z" fill="url(#paint9_linear_9_2804)"/>
<path opacity="0.42029" fill-rule="evenodd" clip-rule="evenodd" d="M958.389 1071.06L746.153 919.362C739.226 914.411 735.974 905.768 737.919 897.479L797.528 643.506C798.854 637.854 802.462 633.003 807.493 630.106L1107.28 457.492C1111.46 455.083 1116.35 454.189 1121.11 454.96L1427.26 504.538C1434.69 505.741 1440.91 510.828 1443.56 517.873L1527.01 739.689C1529.66 746.733 1528.34 754.658 1523.55 760.46L1326.01 999.545C1322.93 1003.27 1318.67 1005.82 1313.93 1006.76L974.716 1074.56C969.023 1075.7 963.113 1074.43 958.389 1071.06ZM743.827 922.616C735.58 916.722 731.709 906.433 734.025 896.565L793.634 642.592C795.213 635.863 799.508 630.088 805.498 626.639L1105.28 454.025C1110.26 451.157 1116.08 450.093 1121.75 451.012L1427.9 500.589C1436.74 502.021 1444.15 508.078 1447.3 516.464L1530.76 738.28C1533.91 746.667 1532.34 756.1 1526.63 763.008L1329.09 1002.09C1325.43 1006.52 1320.35 1009.56 1314.72 1010.68L975.5 1078.49C968.722 1079.84 961.686 1078.33 956.063 1074.31L743.827 922.616Z" fill="url(#paint10_linear_9_2804)"/>
<path opacity="0.449275" fill-rule="evenodd" clip-rule="evenodd" d="M888.956 1051.83L697.985 880.871C691.697 875.242 689.39 866.396 692.127 858.413L775.272 615.96C777.163 610.446 781.261 605.966 786.585 603.593L1094.67 466.228C1099.12 464.244 1104.12 463.869 1108.82 465.168L1401.01 545.987C1408.23 547.984 1413.84 553.677 1415.73 560.927L1474.71 787.04C1476.6 794.29 1474.48 801.998 1469.16 807.268L1253.66 1020.5C1250.2 1023.93 1245.65 1026.05 1240.79 1026.49L904.868 1057.1C899.063 1057.62 893.299 1055.72 888.956 1051.83ZM695.317 883.852C687.831 877.15 685.085 866.619 688.344 857.115L771.489 614.663C773.74 608.098 778.618 602.765 784.956 599.939L1093.04 462.575C1098.34 460.213 1104.29 459.766 1109.88 461.313L1402.08 542.131C1410.67 544.509 1417.35 551.287 1419.6 559.917L1478.58 786.031C1480.83 794.661 1478.31 803.838 1471.97 810.111L1256.47 1023.35C1252.35 1027.43 1246.93 1029.95 1241.16 1030.47L905.231 1061.08C898.32 1061.71 891.459 1059.44 886.288 1054.81L695.317 883.852Z" fill="url(#paint11_linear_9_2804)"/>
<path opacity="0.463768" fill-rule="evenodd" clip-rule="evenodd" d="M855.406 1041.44L675.708 861.872C669.765 855.934 667.933 847.025 671.051 839.224L765.33 603.33C767.498 597.907 771.827 593.631 777.277 591.53L1088 471.749C1092.57 469.988 1097.61 469.878 1102.25 471.44L1386.28 567.009C1393.37 569.392 1398.65 575.362 1400.16 582.683L1446.88 809.95C1448.39 817.272 1445.89 824.841 1440.32 829.827L1217.03 1029.7C1213.38 1032.97 1208.71 1034.86 1203.81 1035.04L871.039 1047.57C865.202 1047.79 859.538 1045.56 855.406 1041.44ZM672.88 864.702C665.805 857.632 663.625 847.027 667.337 837.74L761.616 601.846C764.196 595.389 769.35 590.298 775.838 587.797L1086.56 468.017C1092 465.92 1098 465.79 1103.53 467.649L1387.56 563.217C1395.99 566.055 1402.28 573.161 1404.08 581.877L1450.8 809.145C1452.59 817.861 1449.62 826.872 1442.99 832.807L1219.7 1032.68C1215.36 1036.57 1209.79 1038.82 1203.97 1039.04L871.19 1051.56C864.241 1051.82 857.497 1049.18 852.578 1044.26L672.88 864.702Z" fill="url(#paint12_linear_9_2804)"/>
<path opacity="0.478261" fill-rule="evenodd" clip-rule="evenodd" d="M822.657 1030.59L654.602 843.125C649.02 836.898 647.664 827.953 651.151 820.352L756.11 591.513C758.551 586.193 763.1 582.132 768.663 580.311L1081.04 478.011C1085.72 476.48 1090.78 476.639 1095.35 478.461L1370.5 588.148C1377.42 590.909 1382.37 597.136 1383.48 604.508L1418 832.273C1419.12 839.645 1416.25 847.057 1410.45 851.746L1180.17 1038.04C1176.34 1041.13 1171.55 1042.78 1166.63 1042.71L837.965 1037.57C832.113 1037.47 826.564 1034.94 822.657 1030.59ZM651.624 845.795C644.978 838.382 643.364 827.734 647.515 818.685L752.475 589.845C755.38 583.512 760.796 578.678 767.418 576.509L1079.8 474.21C1085.36 472.387 1091.39 472.576 1096.84 474.746L1371.98 584.432C1380.22 587.719 1386.11 595.132 1387.44 603.908L1421.96 831.673C1423.29 840.45 1419.87 849.273 1412.96 854.856L1182.68 1041.15C1178.13 1044.83 1172.42 1046.8 1166.57 1046.71L837.903 1041.56C830.936 1041.46 824.33 1038.44 819.679 1033.26L651.624 845.795Z" fill="url(#paint13_linear_9_2804)"/>
<path opacity="0.492754" fill-rule="evenodd" clip-rule="evenodd" d="M790.726 1019.33L634.641 824.692C629.434 818.199 628.553 809.244 632.395 801.861L747.561 580.541C750.268 575.338 755.028 571.505 760.689 569.968L1073.76 484.993C1078.53 483.698 1083.61 484.128 1088.09 486.208L1353.65 609.344C1360.4 612.473 1364.99 618.938 1365.72 626.34L1388.11 853.954C1388.84 861.356 1385.6 868.591 1379.59 872.974L1143.11 1045.5C1139.12 1048.41 1134.22 1049.82 1129.29 1049.48L805.662 1027.14C799.811 1026.74 794.395 1023.9 790.726 1019.33ZM631.521 827.195C625.322 819.465 624.273 808.804 628.847 800.014L744.013 578.695C747.236 572.501 752.902 567.937 759.641 566.108L1072.71 481.133C1078.39 479.591 1084.43 480.103 1089.77 482.579L1355.33 605.715C1363.37 609.44 1368.83 617.136 1369.7 625.948L1392.09 853.562C1392.96 862.374 1389.1 870.987 1381.94 876.206L1145.47 1048.73C1140.71 1052.2 1134.89 1053.88 1129.01 1053.47L805.387 1031.13C798.421 1030.65 791.974 1027.28 787.605 1021.83L631.521 827.195Z" fill="url(#paint14_linear_9_2804)"/>
<path opacity="0.507246" fill-rule="evenodd" clip-rule="evenodd" d="M759.623 1007.71L615.793 806.635C610.974 799.898 610.565 790.958 614.749 783.81L739.627 570.446C742.596 565.374 747.555 561.777 753.299 560.531L1066.11 492.671C1070.97 491.617 1076.04 492.32 1080.43 494.655L1335.76 630.539C1342.31 634.024 1346.54 640.706 1346.87 648.118L1357.25 874.941C1357.59 882.352 1353.99 889.392 1347.79 893.461L1105.92 1052.08C1101.76 1054.81 1096.77 1055.97 1091.84 1055.36L774.143 1016.34C768.309 1015.62 763.043 1012.49 759.623 1007.71ZM612.539 808.962C606.803 800.942 606.316 790.299 611.297 781.789L736.175 568.426C739.71 562.387 745.613 558.106 752.451 556.622L1065.26 488.762C1071.04 487.507 1077.08 488.344 1082.31 491.124L1337.64 627.007C1345.44 631.157 1350.47 639.112 1350.87 647.935L1361.24 874.759C1361.65 883.581 1357.36 891.962 1349.98 896.806L1108.11 1055.43C1103.16 1058.67 1097.23 1060.06 1091.35 1059.33L773.655 1020.31C766.71 1019.45 760.441 1015.73 756.37 1010.04L612.539 808.962Z" fill="url(#paint15_linear_9_2804)"/>
<path opacity="0.521739" fill-rule="evenodd" clip-rule="evenodd" d="M729.36 995.783L598.023 789.012C593.604 782.055 593.663 773.155 598.175 766.258L732.255 561.255C735.479 556.326 740.625 552.977 746.438 552.025L1058.07 501.019C1063 500.212 1068.05 501.189 1072.33 503.774L1316.84 651.674C1323.17 655.504 1327.02 662.383 1326.97 669.783L1325.47 895.188C1325.42 902.588 1321.48 909.415 1315.1 913.16L1068.64 1057.79C1064.33 1060.32 1059.26 1061.23 1054.34 1060.35L743.418 1005.2C737.619 1004.17 732.518 1000.75 729.36 995.783ZM594.647 791.156C589.386 782.874 589.457 772.28 594.827 764.068L728.907 559.066C732.745 553.197 738.872 549.211 745.791 548.078L1057.42 497.071C1063.29 496.11 1069.31 497.274 1074.4 500.352L1318.91 648.252C1326.45 652.811 1331.03 661.001 1330.97 669.81L1329.47 895.215C1329.41 904.024 1324.72 912.152 1317.12 916.61L1070.66 1061.24C1065.53 1064.25 1059.5 1065.33 1053.64 1064.29L742.72 1009.14C735.816 1007.91 729.743 1003.85 725.983 997.927L594.647 791.156Z" fill="url(#paint16_linear_9_2804)"/>
<path opacity="0.536232" fill-rule="evenodd" clip-rule="evenodd" d="M699.941 983.592L581.294 771.878C577.285 764.724 577.807 755.891 582.631 749.259L725.386 552.991C728.858 548.217 734.179 545.126 740.045 544.472L1049.6 510.009C1054.59 509.454 1059.61 510.705 1063.76 513.537L1296.9 672.695C1303 676.856 1306.46 683.911 1306.03 691.278L1292.83 914.65C1292.39 922.017 1288.12 928.615 1281.58 932.029L1031.31 1062.62C1026.86 1064.95 1021.72 1065.6 1016.83 1064.46L713.495 993.778C707.747 992.439 702.827 988.742 699.941 983.592ZM577.805 773.833C573.032 765.317 573.654 754.801 579.396 746.906L722.151 550.638C726.284 544.955 732.619 541.275 739.602 540.497L1049.15 506.034C1055.09 505.372 1061.08 506.862 1066.01 510.233L1299.16 669.391C1306.41 674.345 1310.54 682.743 1310.02 691.514L1296.82 914.886C1296.3 923.656 1291.22 931.511 1283.43 935.575L1033.16 1066.17C1027.86 1068.93 1021.75 1069.71 1015.93 1068.35L712.588 997.674C705.744 996.079 699.887 991.678 696.452 985.548L577.805 773.833Z" fill="url(#paint17_linear_9_2804)"/>
<path opacity="0.550725" fill-rule="evenodd" clip-rule="evenodd" d="M671.371 971.188L565.566 755.287C561.975 747.961 562.953 739.218 568.073 732.866L718.963 545.675C722.675 541.069 728.158 538.243 734.063 537.891L1040.67 519.615C1045.71 519.314 1050.69 520.84 1054.69 523.912L1275.97 693.546C1281.81 698.024 1284.88 705.232 1284.06 712.546L1259.37 933.286C1258.56 940.6 1253.97 946.952 1247.28 950.028L994 1066.59C989.413 1068.7 984.22 1069.08 979.371 1067.68L684.379 982.116C678.697 980.468 673.975 976.5 671.371 971.188ZM561.974 757.047C557.7 748.325 558.864 737.918 564.959 730.356L715.849 543.164C720.268 537.682 726.795 534.317 733.825 533.898L1040.43 515.622C1046.43 515.264 1052.36 517.08 1057.13 520.737L1278.4 690.371C1285.36 695.702 1289.01 704.284 1288.04 712.991L1263.35 933.73C1262.38 942.437 1256.91 949.999 1248.96 953.662L995.672 1070.22C990.212 1072.73 984.029 1073.19 978.256 1071.52L683.265 985.957C676.501 983.996 670.879 979.272 667.78 972.949L561.974 757.047Z" fill="url(#paint18_linear_9_2804)"/>
<path opacity="0.565217" fill-rule="evenodd" clip-rule="evenodd" d="M643.651 958.619L550.794 739.288C547.63 731.815 549.056 723.187 554.456 717.129L712.928 539.323C716.872 534.897 722.504 532.345 728.432 532.296L1031.26 529.805C1036.33 529.763 1041.25 531.562 1045.11 534.867L1254.06 714.174C1259.63 718.954 1262.3 726.294 1261.11 733.534L1225.17 951.057C1223.97 958.298 1219.08 964.388 1212.27 967.122L956.742 1069.69C952.031 1071.58 946.794 1071.7 942.001 1070.03L656.071 970.259C650.474 968.306 645.963 964.078 643.651 958.619ZM547.111 740.848C543.344 731.951 545.041 721.68 551.469 714.467L709.942 536.662C714.638 531.393 721.342 528.354 728.399 528.296L1031.22 525.805C1037.27 525.755 1043.12 527.896 1047.71 531.832L1256.67 711.139C1263.3 716.828 1266.48 725.566 1265.05 734.187L1229.11 951.709C1227.69 960.329 1221.87 967.58 1213.76 970.834L958.232 1073.4C952.623 1075.65 946.39 1075.79 940.684 1073.8L654.754 974.036C648.09 971.711 642.719 966.677 639.968 960.178L547.111 740.848Z" fill="url(#paint19_linear_9_2804)"/>
<path opacity="0.57971" fill-rule="evenodd" clip-rule="evenodd" d="M616.78 945.931L536.935 723.93C534.203 716.334 536.067 707.844 541.729 702.092L707.223 533.949C711.39 529.714 717.157 527.443 723.093 527.699L1021.34 540.549C1026.44 540.769 1031.28 542.838 1034.97 546.371L1231.21 734.53C1236.49 739.594 1238.76 747.043 1237.19 754.191L1190.27 967.93C1188.7 975.077 1183.52 980.893 1176.6 983.279L919.589 1071.93C914.763 1073.6 909.496 1073.45 904.773 1071.51L628.574 958.254C623.076 956 618.791 951.522 616.78 945.931ZM533.171 725.283C529.919 716.241 532.138 706.134 538.878 699.286L704.372 531.143C709.333 526.102 716.199 523.398 723.265 523.703L1021.51 536.552C1027.58 536.814 1033.35 539.278 1037.73 543.484L1233.98 731.642C1240.27 737.672 1242.96 746.54 1241.1 755.049L1194.17 968.788C1192.31 977.297 1186.14 984.22 1177.91 987.06L920.893 1075.72C915.148 1077.7 908.878 1077.52 903.256 1075.21L627.056 961.955C620.511 959.271 615.41 953.941 613.016 947.285L533.171 725.283Z" fill="url(#paint20_linear_9_2804)"/>
<path opacity="0.594203" fill-rule="evenodd" clip-rule="evenodd" d="M590.752 933.173L523.939 709.255C521.644 701.562 523.935 693.234 529.842 687.798L701.786 529.563C706.168 525.53 712.056 523.548 717.984 524.108L1010.88 551.814C1015.99 552.298 1020.75 554.636 1024.25 558.388L1207.44 754.563C1212.42 759.896 1214.27 767.431 1212.34 774.466L1154.73 983.874C1152.79 990.909 1147.34 996.435 1140.34 998.471L882.585 1073.34C877.655 1074.77 872.371 1074.35 867.732 1072.15L601.881 946.145C596.5 943.594 592.455 938.879 590.752 933.173ZM520.106 710.398C517.374 701.241 520.101 691.326 527.133 684.855L699.078 526.619C704.294 521.819 711.303 519.458 718.361 520.126L1011.26 547.832C1017.34 548.407 1023 551.192 1027.17 555.658L1210.36 751.833C1216.29 758.182 1218.5 767.152 1216.19 775.527L1158.58 984.935C1156.28 993.31 1149.8 999.889 1141.45 1002.31L883.7 1077.18C877.832 1078.89 871.542 1078.38 866.019 1075.77L600.168 949.759C593.762 946.723 588.946 941.11 586.919 934.317L520.106 710.398Z" fill="url(#paint21_linear_9_2804)"/>
<path opacity="0.608696" fill-rule="evenodd" clip-rule="evenodd" d="M565.562 920.39L511.758 695.305C509.902 687.541 512.608 679.396 518.742 674.287L696.561 526.17C701.147 522.35 707.142 520.662 713.047 521.528L999.865 563.568C1004.97 564.317 1009.63 566.921 1012.94 570.884L1182.78 774.228C1187.44 779.811 1188.88 787.41 1186.59 794.313L1118.61 998.864C1116.32 1005.77 1110.62 1010.99 1103.54 1012.67L845.776 1073.92C840.753 1075.12 835.466 1074.42 830.925 1071.96L575.99 933.976C570.741 931.135 566.949 926.195 565.562 920.39ZM507.867 696.235C505.658 686.992 508.88 677.296 516.182 671.213L694.001 523.097C699.461 518.549 706.597 516.54 713.627 517.57L1000.45 559.61C1006.53 560.501 1012.07 563.602 1016.01 568.32L1185.85 771.664C1191.4 778.31 1193.11 787.356 1190.38 795.574L1122.41 1000.13C1119.68 1008.34 1112.89 1014.56 1104.47 1016.56L846.701 1077.82C840.721 1079.24 834.427 1078.41 829.021 1075.48L574.086 937.494C567.837 934.112 563.323 928.231 561.671 921.32L507.867 696.235Z" fill="url(#paint22_linear_9_2804)"/>
<path opacity="0.623188" fill-rule="evenodd" clip-rule="evenodd" d="M541.199 907.628L500.338 682.117C498.923 674.307 502.032 666.367 508.374 661.594L691.488 523.775C696.268 520.178 702.355 518.789 708.221 519.959L988.275 575.776C993.368 576.791 997.905 579.657 1001.01 583.822L1157.26 793.481C1161.59 799.295 1162.62 806.933 1159.98 813.686L1081.99 1012.88C1079.34 1019.63 1073.4 1024.54 1066.27 1025.87L809.208 1073.7C804.102 1074.65 798.825 1073.67 794.396 1070.96L550.893 921.791C545.792 918.666 542.266 913.514 541.199 907.628ZM496.403 682.83C494.718 673.532 498.419 664.08 505.968 658.398L689.083 520.579C694.773 516.296 702.019 514.644 709.003 516.036L989.057 571.853C995.12 573.061 1000.52 576.474 1004.22 581.431L1160.47 791.09C1165.63 798.012 1166.85 807.106 1163.7 815.144L1085.71 1014.33C1082.56 1022.37 1075.49 1028.22 1067.01 1029.8L809.939 1077.63C803.861 1078.76 797.579 1077.6 792.307 1074.37L548.803 925.202C542.731 921.482 538.533 915.349 537.263 908.341L496.403 682.83Z" fill="url(#paint23_linear_9_2804)"/>
<path opacity="0.637681" fill-rule="evenodd" clip-rule="evenodd" d="M517.653 894.931L489.629 669.724C488.654 661.895 492.151 654.179 498.681 649.751L686.508 522.376C691.471 519.01 697.635 517.927 703.447 519.398L976.09 588.403C981.155 589.685 985.561 592.809 988.446 597.165L1130.92 812.279C1134.91 818.305 1135.52 825.96 1132.54 832.544L1044.91 1025.89C1041.92 1032.47 1035.76 1037.06 1028.6 1038.03L772.922 1072.69C767.745 1073.39 762.491 1072.14 758.189 1069.17L526.579 909.632C521.642 906.231 518.393 900.881 517.653 894.931ZM485.659 670.218C484.499 660.897 488.662 651.712 496.436 646.44L684.263 519.065C690.171 515.059 697.509 513.769 704.429 515.52L977.072 584.525C983.101 586.051 988.346 589.77 991.78 594.956L1134.26 810.07C1139.01 817.244 1139.74 826.357 1136.18 834.195L1048.55 1027.54C1045 1035.38 1037.67 1040.84 1029.14 1042L773.459 1076.65C767.296 1077.49 761.042 1075.99 755.92 1072.47L524.31 912.926C518.432 908.877 514.565 902.508 513.683 895.425L485.659 670.218Z" fill="url(#paint24_linear_9_2804)"/>
<path opacity="0.652174" fill-rule="evenodd" clip-rule="evenodd" d="M494.908 882.342L479.572 658.159C479.037 650.334 482.907 642.864 489.606 638.786L681.562 521.969C686.696 518.844 692.922 518.069 698.665 519.84L963.294 601.414C968.317 602.963 972.577 606.339 975.232 610.876L1103.8 830.583C1107.44 836.801 1107.63 844.45 1104.32 850.847L1007.44 1037.89C1004.13 1044.29 997.766 1048.54 990.588 1049.16L736.96 1070.91C731.722 1071.36 726.506 1069.83 722.343 1066.62L503.037 897.54C498.277 893.871 495.318 888.338 494.908 882.342ZM475.582 658.432C474.945 649.117 479.551 640.223 487.527 635.369L679.482 518.552C685.594 514.832 693.007 513.91 699.844 516.017L964.472 597.592C970.452 599.435 975.524 603.454 978.685 608.856L1107.25 828.562C1111.58 835.965 1111.82 845.071 1107.87 852.687L1010.99 1039.73C1007.05 1047.35 999.475 1052.41 990.929 1053.14L737.301 1074.9C731.066 1075.43 724.857 1073.61 719.901 1069.79L500.595 900.708C494.928 896.34 491.405 889.753 490.917 882.615L475.582 658.432Z" fill="url(#paint25_linear_9_2804)"/>
<path opacity="0.666667" fill-rule="evenodd" clip-rule="evenodd" d="M472.949 869.903L470.115 647.447C470.016 639.653 474.241 632.445 481.091 628.725L676.593 522.546C681.887 519.671 688.16 519.208 693.819 521.274L949.873 614.773C954.841 616.587 958.942 620.21 961.356 624.917L1075.93 848.356C1079.21 854.745 1078.99 862.365 1075.36 868.559L969.648 1048.87C966.017 1055.07 959.472 1058.98 952.297 1059.24L701.361 1068.39C696.075 1068.58 690.911 1066.77 686.901 1063.33L480.252 885.556C475.685 881.627 473.026 875.927 472.949 869.903ZM466.115 647.498C465.997 638.219 471.028 629.639 479.182 625.21L674.684 519.031C680.986 515.609 688.454 515.057 695.191 517.517L951.245 611.016C957.16 613.176 962.042 617.488 964.915 623.092L1079.49 846.531C1083.39 854.137 1083.13 863.208 1078.81 870.582L973.099 1050.9C968.776 1058.27 960.985 1062.93 952.443 1063.24L701.507 1072.39C695.214 1072.62 689.066 1070.46 684.292 1066.36L477.644 888.588C472.207 883.911 469.041 877.125 468.949 869.954L466.115 647.498Z" fill="url(#paint26_linear_9_2804)"/>
<path opacity="0.681159" fill-rule="evenodd" clip-rule="evenodd" d="M451.757 857.655L461.198 637.612C461.53 629.873 466.095 622.946 473.074 619.588L671.544 524.099C676.985 521.481 683.29 521.332 688.849 523.69L935.814 628.444C940.715 630.522 944.644 634.385 946.805 639.25L1047.36 865.565C1050.26 872.104 1049.64 879.672 1045.7 885.646L931.593 1058.82C927.657 1064.8 920.949 1068.36 913.794 1068.27L666.165 1065.16C660.842 1065.09 655.743 1063.01 651.9 1059.32L458.208 873.718C453.848 869.54 451.498 863.688 451.757 857.655ZM457.202 637.44C457.597 628.228 463.031 619.981 471.34 615.984L669.81 520.494C676.287 517.378 683.793 517.2 690.411 520.007L937.376 624.761C943.211 627.236 947.887 631.834 950.46 637.625L1051.01 863.941C1054.47 871.725 1053.73 880.734 1049.04 887.847L934.933 1061.02C930.247 1068.14 922.261 1072.37 913.744 1072.27L666.115 1069.16C659.778 1069.08 653.708 1066.59 649.132 1062.21L455.441 876.606C450.25 871.633 447.452 864.666 447.76 857.484L457.202 637.44Z" fill="url(#paint27_linear_9_2804)"/>
<path opacity="0.695652" fill-rule="evenodd" clip-rule="evenodd" d="M431.311 845.637L452.765 628.673C453.522 621.015 458.407 614.385 465.497 611.392L666.359 526.612C671.935 524.258 678.256 524.425 683.701 527.069L921.109 642.389C925.929 644.73 929.671 648.825 931.57 653.835L1018.12 882.178C1020.65 888.845 1019.62 896.338 1015.39 902.078L893.34 1067.74C889.111 1073.48 882.259 1076.68 875.143 1076.24L631.407 1061.24C626.059 1060.91 621.039 1058.55 617.375 1054.64L436.886 862.064C432.747 857.647 430.715 851.66 431.311 845.637ZM448.784 628.28C449.686 619.163 455.501 611.27 463.941 607.707L664.804 522.926C671.442 520.124 678.967 520.323 685.448 523.471L922.857 638.791C928.594 641.578 933.05 646.453 935.311 652.417L1021.86 880.761C1024.87 888.697 1023.65 897.618 1018.61 904.451L896.56 1070.11C891.526 1076.94 883.368 1080.76 874.897 1080.23L631.162 1065.23C624.795 1064.84 618.819 1062.03 614.457 1057.37L433.968 864.799C429.04 859.542 426.621 852.414 427.33 845.243L448.784 628.28Z" fill="url(#paint28_linear_9_2804)"/>
<path opacity="0.710145" fill-rule="evenodd" clip-rule="evenodd" d="M411.589 833.884L444.757 620.648C445.932 613.094 451.119 606.776 458.298 604.151L660.985 530.068C666.683 527.985 673.004 528.468 678.32 531.394L905.75 656.572C910.475 659.173 914.019 663.492 915.646 668.635L988.269 898.168C990.412 904.94 988.986 912.336 984.479 917.827L854.951 1075.62C850.445 1081.11 843.468 1083.95 836.408 1083.17L597.123 1056.66C591.762 1056.07 586.835 1053.44 583.364 1049.31L416.268 850.629C412.363 845.985 410.656 839.88 411.589 833.884ZM440.805 620.033C442.203 611.041 448.378 603.519 456.925 600.395L659.611 526.311C666.395 523.831 673.921 524.407 680.248 527.89L907.679 653.068C913.304 656.164 917.522 661.306 919.459 667.428L992.083 896.961C994.634 905.023 992.936 913.829 987.571 920.365L858.043 1078.16C852.678 1084.69 844.372 1088.07 835.967 1087.14L596.683 1060.64C590.301 1059.93 584.436 1056.8 580.303 1051.88L413.207 853.204C408.557 847.676 406.526 840.407 407.637 833.27L440.805 620.033Z" fill="url(#paint29_linear_9_2804)"/>
<path opacity="0.724638" fill-rule="evenodd" clip-rule="evenodd" d="M392.566 822.434L437.115 613.547C438.699 606.122 444.167 600.13 451.417 597.875L655.366 534.447C661.174 532.641 667.48 533.442 672.652 536.642L889.73 670.957C894.348 673.814 897.679 678.349 899.025 683.61L957.839 913.507C959.593 920.363 957.776 927.641 953.006 932.868L816.489 1082.47C811.719 1087.7 804.638 1090.17 797.651 1089.05L563.345 1051.46C557.983 1050.6 553.163 1047.7 549.896 1043.36L396.329 839.448C392.67 834.589 391.298 828.383 392.566 822.434ZM433.203 612.713C435.088 603.873 441.598 596.739 450.229 594.055L654.178 530.628C661.092 528.477 668.599 529.43 674.757 533.24L891.835 667.555C897.332 670.957 901.298 676.355 902.901 682.619L961.714 912.516C963.802 920.677 961.639 929.341 955.961 935.564L819.444 1085.17C813.765 1091.39 805.335 1094.33 797.017 1093L562.711 1055.41C556.328 1054.39 550.59 1050.93 546.701 1045.77L393.134 841.854C388.778 836.07 387.144 828.682 388.654 821.6L433.203 612.713Z" fill="url(#paint30_linear_9_2804)"/>
<path opacity="0.73913" fill-rule="evenodd" clip-rule="evenodd" d="M374.217 811.321L429.78 607.382C431.762 600.107 437.492 594.454 444.792 592.569L649.453 539.727C655.357 538.203 661.631 539.32 666.646 542.788L873.046 685.505C877.544 688.615 880.651 693.357 881.707 698.722L926.879 928.175C928.24 935.091 926.041 942.229 921.024 947.179L778.014 1088.3C772.997 1093.25 765.831 1095.35 758.934 1093.9L530.102 1045.67C524.752 1044.54 520.052 1041.37 517.002 1036.84L377.048 828.553C373.647 823.492 372.614 817.203 374.217 811.321ZM425.921 606.33C428.281 597.67 435.101 590.94 443.792 588.696L648.453 535.854C655.481 534.04 662.951 535.369 668.921 539.498L875.321 682.215C880.675 685.917 884.374 691.562 885.632 697.949L930.803 927.403C932.424 935.636 929.806 944.133 923.834 950.027L780.824 1091.14C774.851 1097.04 766.32 1099.54 758.109 1097.81L529.278 1049.59C522.908 1048.24 517.313 1044.47 513.682 1039.07L373.728 830.784C369.679 824.759 368.449 817.272 370.357 810.269L425.921 606.33Z" fill="url(#paint31_linear_9_2804)"/>
<path opacity="0.753623" fill-rule="evenodd" clip-rule="evenodd" d="M356.513 800.574L422.695 602.156C425.064 595.055 431.033 589.751 438.364 588.236L643.196 545.882C649.182 544.644 655.41 546.076 660.254 549.803L855.697 700.181C860.062 703.539 862.932 708.477 863.691 713.932L895.435 942.151C896.402 949.105 893.831 956.081 888.583 960.744L739.589 1093.11C734.341 1097.77 727.11 1099.51 720.319 1097.73L497.426 1039.33C492.099 1037.93 487.533 1034.5 484.712 1029.77L358.399 817.976C355.268 812.726 354.579 806.373 356.513 800.574ZM418.901 600.89C421.721 592.437 428.827 586.123 437.554 584.318L642.386 541.965C649.512 540.491 656.926 542.196 662.693 546.633L858.136 697.011C863.332 701.009 866.75 706.887 867.653 713.38L899.397 941.6C900.548 949.878 897.487 958.183 891.239 963.734L742.246 1096.1C735.998 1101.65 727.39 1103.71 719.305 1101.6L496.412 1043.2C490.07 1041.53 484.635 1037.45 481.277 1031.82L354.963 820.025C351.236 813.775 350.416 806.212 352.719 799.309L418.901 600.89Z" fill="url(#paint32_linear_9_2804)"/>
<path opacity="0.768116" fill-rule="evenodd" clip-rule="evenodd" d="M339.427 790.226L415.801 597.872C418.543 590.965 424.731 586.022 432.073 584.874L636.547 552.883C642.601 551.936 648.767 553.68 653.427 557.658L837.683 714.948C841.902 718.549 844.525 723.673 844.978 729.201L863.554 955.419C864.126 962.387 861.193 969.182 855.731 973.545L701.272 1096.93C695.809 1101.29 688.534 1102.65 681.865 1100.55L465.341 1032.46C460.049 1030.8 455.631 1027.11 453.051 1022.2L340.355 807.744C337.504 802.32 337.165 795.921 339.427 790.226ZM412.083 596.396C415.348 588.174 422.714 582.289 431.454 580.922L635.929 548.931C643.136 547.803 650.476 549.88 656.024 554.616L840.28 711.906C845.303 716.193 848.425 722.293 848.965 728.874L867.54 955.092C868.221 963.386 864.73 971.476 858.227 976.671L703.768 1100.05C697.265 1105.25 688.604 1106.87 680.665 1104.37L464.141 1036.28C457.841 1034.3 452.582 1029.9 449.51 1024.06L336.814 809.605C333.421 803.148 333.017 795.53 335.709 788.75L412.083 596.396Z" fill="url(#paint33_linear_9_2804)"/>
<path opacity="0.782609" fill-rule="evenodd" clip-rule="evenodd" d="M322.925 780.303L409.038 594.527C412.14 587.836 418.524 583.262 425.857 582.478L629.459 560.698C635.568 560.045 641.656 562.099 646.12 566.319L819.006 729.77C823.067 733.608 825.43 738.907 825.573 744.493L831.282 967.965C831.459 974.923 828.177 981.518 822.519 985.572L663.119 1099.77C657.461 1103.82 650.161 1104.81 643.629 1102.4L433.87 1025.11C428.627 1023.18 424.37 1019.24 422.041 1014.16L322.889 797.886C320.328 792.302 320.342 785.877 322.925 780.303ZM405.409 592.845C409.102 584.879 416.702 579.434 425.432 578.501L629.034 556.721C636.306 555.943 643.553 558.388 648.868 563.413L821.754 726.863C826.588 731.433 829.401 737.741 829.571 744.391L835.28 967.862C835.492 976.147 831.585 983.998 824.848 988.824L665.449 1103.02C658.712 1107.85 650.022 1109.02 642.246 1106.15L432.487 1028.87C426.245 1026.57 421.177 1021.87 418.405 1015.83L319.252 799.553C316.205 792.905 316.221 785.256 319.296 778.621L405.409 592.845Z" fill="url(#paint34_linear_9_2804)"/>
<path opacity="0.797101" fill-rule="evenodd" clip-rule="evenodd" d="M306.979 770.831L402.352 592.118C405.797 585.661 412.355 581.464 419.661 581.04L621.89 569.296C628.039 568.938 634.034 571.298 638.29 575.751L799.672 744.611C803.562 748.681 805.654 754.143 805.48 759.77L798.667 979.777C798.452 986.704 794.834 993.079 788.997 996.815L625.19 1101.65C619.353 1105.38 612.048 1106 605.668 1103.29L403.038 1017.32C397.855 1015.12 393.772 1010.94 391.706 1005.7L305.972 788.426C303.711 782.697 304.079 776.265 306.979 770.831ZM398.823 590.234C402.925 582.548 410.732 577.552 419.429 577.047L621.659 565.302C628.978 564.877 636.115 567.687 641.181 572.987L802.563 741.847C807.194 746.693 809.685 753.195 809.478 759.894L802.665 979.901C802.41 988.148 798.102 995.737 791.153 1000.18L627.346 1105.02C620.397 1109.46 611.701 1110.2 604.106 1106.97L401.476 1021.01C395.306 1018.39 390.445 1013.4 387.985 1007.17L302.251 789.895C299.56 783.074 299.998 775.417 303.45 768.948L398.823 590.234Z" fill="url(#paint35_linear_9_2804)"/>
<path opacity="0.811594" fill-rule="evenodd" clip-rule="evenodd" d="M291.554 761.835L395.684 590.634C399.457 584.432 406.166 580.617 413.426 580.548L613.798 578.638C619.973 578.579 625.86 581.241 629.895 585.915L779.684 759.437C783.392 763.731 785.204 769.344 784.707 774.996L765.756 990.849C765.152 997.722 761.212 1003.86 755.215 1007.27L587.537 1102.59C581.539 1106 574.25 1106.25 568.036 1103.25L372.862 1009.13C367.752 1006.67 363.856 1002.24 362.062 996.856L289.573 779.388C287.621 773.53 288.345 767.11 291.554 761.835ZM392.267 588.556C396.758 581.171 404.745 576.631 413.388 576.548L613.76 574.638C621.111 574.568 628.12 577.737 632.923 583.301L782.712 756.823C787.126 761.936 789.283 768.617 788.692 775.345L769.741 991.199C769.022 999.381 764.331 1006.69 757.192 1010.75L589.513 1106.07C582.374 1110.13 573.696 1110.42 566.299 1106.86L371.125 1012.73C365.041 1009.8 360.403 1004.53 358.267 998.121L285.779 780.653C283.454 773.68 284.316 766.036 288.136 759.756L392.267 588.556Z" fill="url(#paint36_linear_9_2804)"/>
<path opacity="0.826087" fill-rule="evenodd" clip-rule="evenodd" d="M276.617 753.334L388.982 590.066C393.064 584.134 399.901 580.707 407.097 580.987L605.145 588.688C611.331 588.929 617.096 591.887 620.899 596.771L759.054 774.212C762.567 778.724 764.088 784.474 763.266 790.134L732.596 1001.18C731.609 1007.97 727.362 1013.85 721.224 1016.93L550.213 1102.63C544.074 1105.71 536.82 1105.59 530.785 1102.32L343.36 1000.57C338.335 997.846 334.639 993.186 333.127 987.671L273.664 770.793C272.027 764.822 273.107 758.434 276.617 753.334ZM385.687 587.798C390.547 580.736 398.686 576.657 407.252 576.99L605.301 584.691C612.665 584.978 619.528 588.499 624.055 594.314L762.21 771.755C766.392 777.127 768.203 783.972 767.224 790.709L736.555 1001.75C735.379 1009.84 730.323 1016.84 723.016 1020.51L552.005 1106.21C544.697 1109.87 536.061 1109.73 528.877 1105.83L341.452 1004.09C335.469 1000.84 331.069 995.294 329.269 988.728L269.806 771.85C267.857 764.743 269.144 757.137 273.322 751.066L385.687 587.798Z" fill="url(#paint37_linear_9_2804)"/>
<path opacity="0.84058" fill-rule="evenodd" clip-rule="evenodd" d="M262.133 745.349L382.189 590.396C386.562 584.752 393.504 581.716 400.618 582.338L595.893 599.406C602.076 599.947 607.704 603.195 611.265 608.278L737.788 788.905C741.096 793.627 742.317 799.501 741.165 805.149L699.234 1010.75C697.868 1017.45 693.331 1023.06 687.071 1025.8L513.268 1101.8C507.008 1104.54 499.807 1104.06 493.965 1100.51L314.547 991.696C309.617 988.707 306.134 983.822 304.913 978.188L258.21 762.659C256.895 756.593 258.332 750.256 262.133 745.349ZM379.027 587.946C384.233 581.227 392.498 577.613 400.966 578.353L596.242 595.421C603.603 596.065 610.302 599.932 614.541 605.984L741.064 786.61C745.002 792.231 746.455 799.224 745.084 805.949L703.153 1011.55C701.528 1019.52 696.126 1026.21 688.673 1029.46L514.871 1105.46C507.418 1108.72 498.845 1108.15 491.89 1103.93L312.472 995.116C306.604 991.557 302.457 985.742 301.004 979.035L254.3 763.506C252.736 756.284 254.445 748.741 258.971 742.9L379.027 587.946Z" fill="url(#paint38_linear_9_2804)"/>
<path opacity="0.855072" fill-rule="evenodd" clip-rule="evenodd" d="M248.068 737.897L375.254 591.609C379.899 586.266 386.923 583.624 393.937 584.579L586.01 610.75C592.176 611.59 597.652 615.122 600.961 620.392L715.901 803.482C718.991 808.405 719.903 814.389 718.419 820.009L665.716 1019.59C663.98 1026.16 659.17 1031.49 652.807 1033.88L476.752 1100.12C470.389 1102.51 463.26 1101.68 457.622 1097.88L286.434 982.539C281.613 979.291 278.355 974.19 277.434 968.45L243.181 755.003C242.195 748.859 243.984 742.594 248.068 737.897ZM372.236 588.984C377.765 582.624 386.127 579.478 394.477 580.616L586.55 606.786C593.891 607.787 600.41 611.991 604.349 618.265L719.288 801.355C722.968 807.216 724.053 814.339 722.286 821.03L669.583 1020.61C667.517 1028.43 661.79 1034.77 654.215 1037.62L478.16 1103.86C470.585 1106.71 462.099 1105.72 455.387 1101.2L284.199 985.856C278.46 981.989 274.58 975.917 273.484 969.084L239.231 755.637C238.057 748.322 240.188 740.864 245.049 735.273L372.236 588.984Z" fill="url(#paint39_linear_9_2804)"/>
<path opacity="0.869565" fill-rule="evenodd" clip-rule="evenodd" d="M234.384 730.992L368.128 593.681C373.023 588.655 380.106 586.406 387.004 587.687L575.464 622.676C581.599 623.814 586.909 627.622 589.957 633.067L693.404 817.911C696.267 823.026 696.861 829.106 695.043 834.679L632.087 1027.68C629.99 1034.11 624.924 1039.13 618.479 1041.18L440.708 1097.63C434.262 1099.68 427.225 1098.5 421.803 1094.46L259.032 973.143C254.331 969.64 251.309 964.331 250.696 958.501L228.543 747.841C227.89 741.636 230.031 735.462 234.384 730.992ZM365.262 590.89C371.09 584.907 379.522 582.229 387.734 583.754L576.195 618.743C583.498 620.099 589.82 624.632 593.447 631.114L696.894 815.957C700.302 822.047 701.01 829.285 698.846 835.919L635.89 1028.92C633.393 1036.57 627.363 1042.55 619.689 1044.99L441.919 1101.45C434.245 1103.88 425.868 1102.47 419.412 1097.66L256.641 976.35C251.046 972.18 247.448 965.86 246.718 958.92L224.565 748.259C223.788 740.872 226.336 733.522 231.519 728.201L365.262 590.89Z" fill="url(#paint40_linear_9_2804)"/>
<path opacity="0.884058" fill-rule="evenodd" clip-rule="evenodd" d="M221.048 724.647L360.759 596.591C365.884 591.893 373.003 590.037 379.769 591.633L564.228 635.139C570.317 636.575 575.448 640.651 578.225 646.257L670.312 832.162C672.937 837.461 673.206 843.62 671.053 849.128L598.393 1035.03C595.944 1041.29 590.642 1046.01 584.134 1047.7L405.181 1094.38C398.673 1096.08 391.744 1094.55 386.548 1090.28L232.347 963.552C227.779 959.797 225.005 954.291 224.707 948.385L214.264 741.185C213.949 734.937 216.436 728.874 221.048 724.647ZM358.056 593.642C364.158 588.05 372.632 585.84 380.688 587.74L565.146 631.245C572.395 632.955 578.504 637.807 581.81 644.481L673.896 830.386C677.021 836.694 677.341 844.028 674.779 850.584L602.118 1036.48C599.203 1043.94 592.892 1049.55 585.143 1051.57L406.191 1098.25C398.442 1100.27 390.195 1098.46 384.008 1093.37L229.807 966.642C224.369 962.173 221.067 955.617 220.712 948.586L210.269 741.387C209.894 733.949 212.855 726.731 218.345 721.699L358.056 593.642Z" fill="url(#paint41_linear_9_2804)"/>
<path opacity="0.898551" fill-rule="evenodd" clip-rule="evenodd" d="M208.021 718.872L353.103 600.31C358.436 595.952 365.567 594.486 372.186 596.387L552.276 648.092C558.305 649.823 563.244 654.159 565.743 659.912L646.642 846.205C649.019 851.678 648.955 857.902 646.468 863.325L564.676 1041.65C561.888 1047.73 556.369 1052.12 549.818 1053.47L370.211 1090.39C363.659 1091.74 356.858 1089.89 351.897 1085.4L206.385 953.808C201.96 949.806 199.446 944.111 199.47 938.145L200.31 735.046C200.336 728.774 203.164 722.841 208.021 718.872ZM350.572 597.213C356.92 592.025 365.41 590.279 373.29 592.542L553.38 644.248C560.557 646.308 566.437 651.47 569.412 658.319L650.311 844.612C653.14 851.127 653.065 858.537 650.104 864.993L568.312 1043.32C564.992 1050.56 558.423 1055.78 550.623 1057.38L371.017 1094.31C363.217 1095.92 355.12 1093.71 349.214 1088.37L203.702 956.774C198.434 952.011 195.441 945.231 195.47 938.129L196.31 735.03C196.341 727.563 199.708 720.5 205.49 715.775L350.572 597.213Z" fill="url(#paint42_linear_9_2804)"/>
<path opacity="0.913043" fill-rule="evenodd" clip-rule="evenodd" d="M195.268 713.675L345.113 604.811C350.631 600.802 357.753 599.723 364.211 601.917L539.585 661.49C545.54 663.513 550.275 668.098 552.488 673.985L622.412 860.013C624.53 865.649 624.128 871.922 621.307 877.241L530.98 1047.56C527.865 1053.43 522.15 1057.49 515.575 1058.48L335.836 1085.72C329.261 1086.72 322.602 1084.54 317.885 1079.86L181.147 943.953C176.877 939.709 174.634 933.836 174.987 927.826L186.647 729.433C187.016 723.154 190.18 717.372 195.268 713.675ZM342.762 601.575C349.331 596.802 357.809 595.517 365.498 598.129L540.872 657.702C547.961 660.111 553.598 665.569 556.232 672.578L626.156 858.606C628.678 865.315 628.199 872.783 624.841 879.115L534.514 1049.43C530.805 1056.43 524.002 1061.25 516.174 1062.44L336.435 1089.68C328.608 1090.86 320.681 1088.27 315.065 1082.69L178.327 946.79C173.244 941.737 170.573 934.746 170.994 927.591L182.654 729.198C183.093 721.724 186.86 714.84 192.917 710.439L342.762 601.575Z" fill="url(#paint43_linear_9_2804)"/>
<path opacity="0.927536" fill-rule="evenodd" clip-rule="evenodd" d="M182.752 709.062L336.749 610.061C342.429 606.409 349.519 605.712 355.802 608.187L526.138 675.282C532.005 677.593 536.523 682.419 538.444 688.425L597.641 873.558C599.492 879.346 598.744 885.653 595.592 890.848L497.347 1052.76C493.918 1058.41 488.028 1062.12 481.449 1062.77L302.09 1080.41C295.511 1081.06 289.012 1078.57 284.547 1073.7L156.635 934.029C152.53 929.548 150.569 923.508 151.256 917.471L173.243 724.351C173.957 718.086 177.448 712.472 182.752 709.062ZM334.586 606.696C341.348 602.349 349.788 601.519 357.268 604.465L527.604 671.561C534.589 674.312 539.967 680.057 542.254 687.207L601.451 872.34C603.654 879.231 602.764 886.738 599.012 892.923L500.766 1054.84C496.684 1061.56 489.672 1065.98 481.841 1066.75L302.481 1084.39C294.65 1085.16 286.912 1082.2 281.597 1076.4L153.685 936.731C148.799 931.396 146.463 924.206 147.282 917.018L169.269 723.899C170.118 716.44 174.274 709.757 180.589 705.698L334.586 606.696Z" fill="url(#paint44_linear_9_2804)"/>
<path opacity="0.942029" fill-rule="evenodd" clip-rule="evenodd" d="M170.437 705.036L327.969 616.027C333.788 612.739 340.824 612.417 346.918 615.16L511.916 689.421C517.682 692.016 521.972 697.071 523.594 703.182L572.349 886.815C573.923 892.745 572.825 899.067 569.344 904.119L463.815 1057.28C460.087 1062.69 454.044 1066.04 447.481 1066.34L269.004 1074.5C262.442 1074.8 256.117 1072.02 251.912 1066.97L132.844 924.08C128.917 919.366 127.247 913.171 128.273 907.122L160.064 719.806C161.122 713.572 164.932 708.147 170.437 705.036ZM326.001 612.544C332.928 608.63 341.305 608.247 348.56 611.513L513.558 685.773C520.422 688.863 525.529 694.88 527.46 702.155L576.215 885.789C578.089 892.848 576.782 900.374 572.638 906.388L467.108 1059.55C462.671 1065.99 455.476 1069.98 447.664 1070.34L269.187 1078.5C261.375 1078.86 253.845 1075.54 248.839 1069.53L129.771 926.64C125.095 921.029 123.107 913.654 124.33 906.453L156.12 719.137C157.38 711.716 161.916 705.257 168.47 701.554L326.001 612.544Z" fill="url(#paint45_linear_9_2804)"/>
<path opacity="0.956522" fill-rule="evenodd" clip-rule="evenodd" d="M158.287 701.599L318.736 622.672C324.67 619.754 331.631 619.8 337.525 622.797L496.908 703.855C502.559 706.729 506.609 712.002 507.929 718.203L546.557 899.759C547.847 905.819 546.394 912.139 542.588 917.029L430.423 1061.13C426.414 1066.28 420.238 1069.27 413.711 1069.23L236.608 1068.05C230.082 1068 223.946 1064.93 220.006 1059.72L109.771 914.145C106.031 909.206 104.662 902.867 106.032 896.824L147.077 715.799C148.478 709.616 152.599 704.398 158.287 701.599ZM316.97 619.083C324.034 615.608 332.322 615.664 339.338 619.232L498.721 700.29C505.449 703.711 510.27 709.989 511.841 717.371L550.47 898.927C552.005 906.141 550.275 913.665 545.745 919.486L433.579 1063.58C428.807 1069.71 421.455 1073.28 413.685 1073.23L236.582 1072.05C228.812 1072 221.508 1068.33 216.818 1062.14L106.582 916.56C102.129 910.68 100.501 903.133 102.131 895.94L143.176 714.915C144.844 707.554 149.749 701.342 156.522 698.01L316.97 619.083Z" fill="url(#paint46_linear_9_2804)"/>
<path opacity="0.971014" fill-rule="evenodd" clip-rule="evenodd" d="M146.267 698.75L309.016 629.96C315.04 627.414 321.906 627.819 327.589 631.057L481.103 718.536C486.626 721.683 490.426 727.163 491.438 733.439L520.289 912.368C521.286 918.547 519.474 924.848 515.349 929.554L397.208 1064.33C392.935 1069.2 386.649 1071.83 380.178 1071.45L204.928 1061.09C198.456 1060.71 192.524 1057.36 188.854 1052.01L87.4079 904.266C83.8654 899.107 82.8087 892.637 84.5256 886.618L134.248 712.332C135.992 706.219 140.412 701.225 146.267 698.75ZM307.458 626.275C314.63 623.244 322.804 623.727 329.569 627.582L483.084 715.061C489.659 718.807 494.183 725.331 495.387 732.802L524.238 911.731C525.424 919.087 523.268 926.588 518.357 932.19L400.216 1066.96C395.129 1072.77 387.646 1075.9 379.942 1075.44L204.692 1065.08C196.987 1064.63 189.925 1060.64 185.557 1054.28L84.1103 906.531C79.8931 900.389 78.6351 892.686 80.6791 885.521L130.402 711.235C132.478 703.957 137.739 698.012 144.71 695.066L307.458 626.275Z" fill="url(#paint47_linear_9_2804)"/>
<path opacity="0.985507" fill-rule="evenodd" clip-rule="evenodd" d="M134.341 696.486L298.775 637.85C304.866 635.678 311.617 636.433 317.078 639.897L464.495 733.412C469.877 736.826 473.417 742.5 474.118 748.835L493.569 924.62C494.265 930.905 492.091 937.169 487.652 941.672L364.206 1066.9C359.686 1071.49 353.314 1073.74 346.916 1073.03L173.984 1053.69C167.586 1052.97 161.87 1049.36 158.476 1043.89L65.7456 894.484C62.4111 889.111 61.675 882.522 63.7418 876.546L121.548 709.402C123.631 703.378 128.337 698.627 134.341 696.486ZM297.432 634.082C304.682 631.497 312.72 632.396 319.22 636.519L466.637 730.034C473.045 734.099 477.259 740.854 478.094 748.395L497.545 924.18C498.373 931.662 495.785 939.119 490.501 944.48L367.054 1069.71C361.674 1075.17 354.088 1077.86 346.471 1077L173.539 1057.66C165.923 1056.81 159.118 1052.51 155.077 1046L62.347 896.593C58.3773 890.197 57.501 882.353 59.9615 875.239L117.767 708.095C120.247 700.924 125.85 695.267 132.997 692.718L297.432 634.082Z" fill="url(#paint48_linear_9_2804)"/>
<path fill-rule="evenodd" clip-rule="evenodd" d="M122.474 694.802L287.985 646.301C294.118 644.504 300.735 645.597 305.964 649.272L447.078 748.433C452.307 752.108 455.578 757.963 455.965 764.342L466.421 936.496C466.808 942.875 464.27 949.083 459.524 953.363L331.448 1068.87C326.702 1073.15 320.265 1075.04 313.96 1074L143.796 1045.88C137.491 1044.84 132.003 1040.99 128.886 1035.41L44.7718 884.838C41.655 879.258 41.2484 872.563 43.6671 866.648L108.942 707.007C111.36 701.091 116.341 696.599 122.474 694.802ZM286.86 642.463C294.161 640.323 302.039 641.625 308.264 645.999L449.378 745.161C455.603 749.535 459.497 756.506 459.958 764.1L470.413 936.253C470.875 943.847 467.853 951.238 462.203 956.334L334.127 1071.84C328.477 1076.94 320.814 1079.18 313.308 1077.94L143.144 1049.83C135.638 1048.59 129.105 1044 125.394 1037.36L41.2797 886.788C37.5692 880.146 37.0852 872.176 39.9646 865.134L105.239 705.493C108.119 698.451 114.048 693.103 121.349 690.963L286.86 642.463Z" fill="url(#paint49_linear_9_2804)"/>
</g>
<defs>
<linearGradient id="paint0_linear_9_2804" x1="1082.44" y1="1122.87" x2="1675.08" y2="318.504" gradientUnits="userSpaceOnUse">
<stop stop-color="#FF1CF7"/>
<stop offset="1" stop-color="#00F0FF"/>
</linearGradient>
<linearGradient id="paint1_linear_9_2804" x1="1044.02" y1="1106.03" x2="1671.36" y2="341.795" gradientUnits="userSpaceOnUse">
<stop stop-color="#FF1CF7"/>
<stop offset="1" stop-color="#00F0FF"/>
</linearGradient>
<linearGradient id="paint2_linear_9_2804" x1="1006.83" y1="1088.5" x2="1666.31" y2="365.814" gradientUnits="userSpaceOnUse">
<stop stop-color="#FF1CF7"/>
<stop offset="1" stop-color="#00F0FF"/>
</linearGradient>
<linearGradient id="paint3_linear_9_2804" x1="970.9" y1="1070.38" x2="1659.92" y2="390.48" gradientUnits="userSpaceOnUse">
<stop stop-color="#FF1CF7"/>
<stop offset="1" stop-color="#00F0FF"/>
</linearGradient>
<linearGradient id="paint4_linear_9_2804" x1="936.248" y1="1051.72" x2="1652.15" y2="415.711" gradientUnits="userSpaceOnUse">
<stop stop-color="#FF1CF7"/>
<stop offset="1" stop-color="#00F0FF"/>
</linearGradient>
<linearGradient id="paint5_linear_9_2804" x1="902.888" y1="1032.62" x2="1642.99" y2="441.424" gradientUnits="userSpaceOnUse">
<stop stop-color="#FF1CF7"/>
<stop offset="1" stop-color="#00F0FF"/>
</linearGradient>
<linearGradient id="paint6_linear_9_2804" x1="870.833" y1="1013.15" x2="1632.42" y2="467.538" gradientUnits="userSpaceOnUse">
<stop stop-color="#FF1CF7"/>
<stop offset="1" stop-color="#00F0FF"/>
</linearGradient>
<linearGradient id="paint7_linear_9_2804" x1="810.658" y1="973.395" x2="1607.07" y2="520.635" gradientUnits="userSpaceOnUse">
<stop stop-color="#FF1CF7"/>
<stop offset="1" stop-color="#00F0FF"/>
</linearGradient>
<linearGradient id="paint8_linear_9_2804" x1="782.537" y1="953.265" x2="1592.28" y2="547.455" gradientUnits="userSpaceOnUse">
<stop stop-color="#FF1CF7"/>
<stop offset="1" stop-color="#00F0FF"/>
</linearGradient>
<linearGradient id="paint9_linear_9_2804" x1="755.72" y1="933.067" x2="1576.08" y2="574.348" gradientUnits="userSpaceOnUse">
<stop stop-color="#FF1CF7"/>
<stop offset="1" stop-color="#00F0FF"/>
</linearGradient>
<linearGradient id="paint10_linear_9_2804" x1="730.197" y1="912.875" x2="1558.5" y2="601.235" gradientUnits="userSpaceOnUse">
<stop stop-color="#FF1CF7"/>
<stop offset="1" stop-color="#00F0FF"/>
</linearGradient>
<linearGradient id="paint11_linear_9_2804" x1="682.967" y1="872.795" x2="1519.23" y2="654.681" gradientUnits="userSpaceOnUse">
<stop stop-color="#FF1CF7"/>
<stop offset="1" stop-color="#00F0FF"/>
</linearGradient>
<linearGradient id="paint12_linear_9_2804" x1="661.218" y1="853.049" x2="1497.59" y2="681.089" gradientUnits="userSpaceOnUse">
<stop stop-color="#FF1CF7"/>
<stop offset="1" stop-color="#00F0FF"/>
</linearGradient>
<linearGradient id="paint13_linear_9_2804" x1="640.68" y1="833.587" x2="1474.64" y2="707.19" gradientUnits="userSpaceOnUse">
<stop stop-color="#FF1CF7"/>
<stop offset="1" stop-color="#00F0FF"/>
</linearGradient>
<linearGradient id="paint14_linear_9_2804" x1="621.321" y1="814.476" x2="1450.43" y2="732.914" gradientUnits="userSpaceOnUse">
<stop stop-color="#FF1CF7"/>
<stop offset="1" stop-color="#00F0FF"/>
</linearGradient>
<linearGradient id="paint15_linear_9_2804" x1="603.109" y1="795.779" x2="1424.99" y2="758.195" gradientUnits="userSpaceOnUse">
<stop stop-color="#FF1CF7"/>
<stop offset="1" stop-color="#00F0FF"/>
</linearGradient>
<linearGradient id="paint16_linear_9_2804" x1="586.007" y1="777.554" x2="1398.35" y2="782.966" gradientUnits="userSpaceOnUse">
<stop stop-color="#FF1CF7"/>
<stop offset="1" stop-color="#00F0FF"/>
</linearGradient>
<linearGradient id="paint17_linear_9_2804" x1="569.974" y1="759.86" x2="1370.57" y2="807.168" gradientUnits="userSpaceOnUse">
<stop stop-color="#FF1CF7"/>
<stop offset="1" stop-color="#00F0FF"/>
</linearGradient>
<linearGradient id="paint18_linear_9_2804" x1="554.968" y1="742.751" x2="1341.68" y2="830.74" gradientUnits="userSpaceOnUse">
<stop stop-color="#FF1CF7"/>
<stop offset="1" stop-color="#00F0FF"/>
</linearGradient>
<linearGradient id="paint19_linear_9_2804" x1="540.943" y1="726.278" x2="1311.73" y2="853.629" gradientUnits="userSpaceOnUse">
<stop stop-color="#FF1CF7"/>
<stop offset="1" stop-color="#00F0FF"/>
</linearGradient>
<linearGradient id="paint20_linear_9_2804" x1="527.851" y1="710.49" x2="1280.78" y2="875.781" gradientUnits="userSpaceOnUse">
<stop stop-color="#FF1CF7"/>
<stop offset="1" stop-color="#00F0FF"/>
</linearGradient>
<linearGradient id="paint21_linear_9_2804" x1="515.64" y1="695.431" x2="1248.89" y2="897.149" gradientUnits="userSpaceOnUse">
<stop stop-color="#FF1CF7"/>
<stop offset="1" stop-color="#00F0FF"/>
</linearGradient>
<linearGradient id="paint22_linear_9_2804" x1="504.26" y1="681.144" x2="1216.1" y2="917.689" gradientUnits="userSpaceOnUse">
<stop stop-color="#FF1CF7"/>
<stop offset="1" stop-color="#00F0FF"/>
</linearGradient>
<linearGradient id="paint23_linear_9_2804" x1="493.655" y1="667.665" x2="1182.48" y2="937.359" gradientUnits="userSpaceOnUse">
<stop stop-color="#FF1CF7"/>
<stop offset="1" stop-color="#00F0FF"/>
</linearGradient>
<linearGradient id="paint24_linear_9_2804" x1="483.769" y1="655.031" x2="1148.08" y2="956.121" gradientUnits="userSpaceOnUse">
<stop stop-color="#FF1CF7"/>
<stop offset="1" stop-color="#00F0FF"/>
</linearGradient>
<linearGradient id="paint25_linear_9_2804" x1="474.545" y1="643.27" x2="1112.98" y2="973.944" gradientUnits="userSpaceOnUse">
<stop stop-color="#FF1CF7"/>
<stop offset="1" stop-color="#00F0FF"/>
</linearGradient>
<linearGradient id="paint26_linear_9_2804" x1="465.923" y1="632.411" x2="1077.23" y2="990.798" gradientUnits="userSpaceOnUse">
<stop stop-color="#FF1CF7"/>
<stop offset="1" stop-color="#00F0FF"/>
</linearGradient>
<linearGradient id="paint27_linear_9_2804" x1="457.844" y1="622.477" x2="1040.89" y2="1006.66" gradientUnits="userSpaceOnUse">
<stop stop-color="#FF1CF7"/>
<stop offset="1" stop-color="#00F0FF"/>
</linearGradient>
<linearGradient id="paint28_linear_9_2804" x1="450.247" y1="613.487" x2="1004.03" y2="1021.5" gradientUnits="userSpaceOnUse">
<stop stop-color="#FF1CF7"/>
<stop offset="1" stop-color="#00F0FF"/>
</linearGradient>
<linearGradient id="paint29_linear_9_2804" x1="443.072" y1="605.458" x2="966.726" y2="1035.31" gradientUnits="userSpaceOnUse">
<stop stop-color="#FF1CF7"/>
<stop offset="1" stop-color="#00F0FF"/>
</linearGradient>
<linearGradient id="paint30_linear_9_2804" x1="436.255" y1="598.401" x2="929.032" y2="1048.08" gradientUnits="userSpaceOnUse">
<stop stop-color="#FF1CF7"/>
<stop offset="1" stop-color="#00F0FF"/>
</linearGradient>
<linearGradient id="paint31_linear_9_2804" x1="429.737" y1="592.325" x2="891.016" y2="1059.79" gradientUnits="userSpaceOnUse">
<stop stop-color="#FF1CF7"/>
<stop offset="1" stop-color="#00F0FF"/>
</linearGradient>
<linearGradient id="paint32_linear_9_2804" x1="423.456" y1="587.234" x2="852.747" y2="1070.45" gradientUnits="userSpaceOnUse">
<stop stop-color="#FF1CF7"/>
<stop offset="1" stop-color="#00F0FF"/>
</linearGradient>
<linearGradient id="paint33_linear_9_2804" x1="417.351" y1="583.128" x2="814.289" y2="1080.04" gradientUnits="userSpaceOnUse">
<stop stop-color="#FF1CF7"/>
<stop offset="1" stop-color="#00F0FF"/>
</linearGradient>
<linearGradient id="paint34_linear_9_2804" x1="411.361" y1="580.006" x2="775.706" y2="1088.58" gradientUnits="userSpaceOnUse">
<stop stop-color="#FF1CF7"/>
<stop offset="1" stop-color="#00F0FF"/>
</linearGradient>
<linearGradient id="paint35_linear_9_2804" x1="405.427" y1="577.86" x2="737.064" y2="1096.06" gradientUnits="userSpaceOnUse">
<stop stop-color="#FF1CF7"/>
<stop offset="1" stop-color="#00F0FF"/>
</linearGradient>
<linearGradient id="paint36_linear_9_2804" x1="399.49" y1="576.681" x2="698.424" y2="1102.51" gradientUnits="userSpaceOnUse">
<stop stop-color="#FF1CF7"/>
<stop offset="1" stop-color="#00F0FF"/>
</linearGradient>
<linearGradient id="paint37_linear_9_2804" x1="393.493" y1="576.455" x2="659.85" y2="1107.93" gradientUnits="userSpaceOnUse">
<stop stop-color="#FF1CF7"/>
<stop offset="1" stop-color="#00F0FF"/>
</linearGradient>
<linearGradient id="paint38_linear_9_2804" x1="387.38" y1="577.166" x2="621.399" y2="1112.35" gradientUnits="userSpaceOnUse">
<stop stop-color="#FF1CF7"/>
<stop offset="1" stop-color="#00F0FF"/>
</linearGradient>
<linearGradient id="paint39_linear_9_2804" x1="381.096" y1="578.793" x2="583.133" y2="1115.78" gradientUnits="userSpaceOnUse">
<stop stop-color="#FF1CF7"/>
<stop offset="1" stop-color="#00F0FF"/>
</linearGradient>
<linearGradient id="paint40_linear_9_2804" x1="374.59" y1="581.314" x2="545.105" y2="1118.25" gradientUnits="userSpaceOnUse">
<stop stop-color="#FF1CF7"/>
<stop offset="1" stop-color="#00F0FF"/>
</linearGradient>
<linearGradient id="paint41_linear_9_2804" x1="367.81" y1="584.702" x2="507.372" y2="1119.79" gradientUnits="userSpaceOnUse">
<stop stop-color="#FF1CF7"/>
<stop offset="1" stop-color="#00F0FF"/>
</linearGradient>
<linearGradient id="paint42_linear_9_2804" x1="360.708" y1="588.93" x2="469.985" y2="1120.42" gradientUnits="userSpaceOnUse">
<stop stop-color="#FF1CF7"/>
<stop offset="1" stop-color="#00F0FF"/>
</linearGradient>
<linearGradient id="paint43_linear_9_2804" x1="353.238" y1="593.964" x2="432.994" y2="1120.19" gradientUnits="userSpaceOnUse">
<stop stop-color="#FF1CF7"/>
<stop offset="1" stop-color="#00F0FF"/>
</linearGradient>
<linearGradient id="paint44_linear_9_2804" x1="345.355" y1="599.773" x2="396.446" y2="1119.13" gradientUnits="userSpaceOnUse">
<stop stop-color="#FF1CF7"/>
<stop offset="1" stop-color="#00F0FF"/>
</linearGradient>
<linearGradient id="paint45_linear_9_2804" x1="337.02" y1="606.319" x2="360.385" y2="1117.27" gradientUnits="userSpaceOnUse">
<stop stop-color="#FF1CF7"/>
<stop offset="1" stop-color="#00F0FF"/>
</linearGradient>
<linearGradient id="paint46_linear_9_2804" x1="328.192" y1="613.563" x2="324.853" y2="1114.66" gradientUnits="userSpaceOnUse">
<stop stop-color="#FF1CF7"/>
<stop offset="1" stop-color="#00F0FF"/>
</linearGradient>
<linearGradient id="paint47_linear_9_2804" x1="318.836" y1="621.466" x2="289.889" y2="1111.35" gradientUnits="userSpaceOnUse">
<stop stop-color="#FF1CF7"/>
<stop offset="1" stop-color="#00F0FF"/>
</linearGradient>
<linearGradient id="paint48_linear_9_2804" x1="308.92" y1="629.985" x2="255.527" y2="1107.37" gradientUnits="userSpaceOnUse">
<stop stop-color="#FF1CF7"/>
<stop offset="1" stop-color="#00F0FF"/>
</linearGradient>
<linearGradient id="paint49_linear_9_2804" x1="298.414" y1="639.077" x2="221.8" y2="1102.78" gradientUnits="userSpaceOnUse">
<stop stop-color="#FF1CF7"/>
<stop offset="1" stop-color="#00F0FF"/>
</linearGradient>
</defs>
</svg>
